<?xml version="1.0" standalone="no"?>
<!DOCTYPE svg PUBLIC "-//W3C//DTD SVG 20010904//EN"
 "http://www.w3.org/TR/2001/REC-SVG-20010904/DTD/svg10.dtd">
<svg version="1.0" xmlns="http://www.w3.org/2000/svg"
 width="157.000000pt" height="157.000000pt" viewBox="0 0 157.000000 157.000000"
 preserveAspectRatio="xMidYMid meet">
<metadata>
Created by potrace 1.14, written by Peter Selinger 2001-2017
</metadata>
<g transform="translate(0.000000,157.000000) scale(0.100000,-0.100000)"
fill="#000000" stroke="none">
<path d="M366 1202 c-3 -2 -23 -6 -43 -7 -46 -3 -156 -51 -148 -65 3 -5 0 -7
-8 -4 -21 8 -112 -80 -138 -132 -16 -35 -20 -57 -17 -95 6 -57 9 -62 61 -84
35 -14 38 -14 44 2 4 9 2 18 -5 21 -6 2 -9 9 -7 15 2 7 6 33 9 59 6 58 35 126
69 157 15 13 24 28 20 34 -3 6 -1 7 5 3 6 -4 23 1 37 10 14 9 28 14 32 11 3
-4 7 -84 9 -179 3 -161 14 -547 16 -575 1 -9 24 -13 78 -13 88 0 78 -10 130
132 18 48 29 92 25 99 -5 7 -4 10 3 5 13 -8 26 29 16 46 -4 7 -3 10 1 5 8 -7
28 43 139 343 26 69 51 134 56 145 5 11 12 30 15 43 6 22 4 23 -32 20 l-38 -3
-30 -90 c-17 -49 -33 -94 -36 -100 -6 -9 -16 -48 -20 -70 0 -5 -6 -19 -12 -30
-14 -26 -19 -44 -21 -77 0 -14 -4 -24 -8 -22 -5 3 -42 -92 -53 -136 -1 -3 -4
-12 -8 -20 -3 -8 -13 -39 -22 -67 -9 -29 -20 -55 -23 -57 -4 -2 -7 30 -6 72 0
45 -4 80 -10 84 -7 5 -7 8 -1 8 10 0 9 499 -1 509 -6 6 -72 9 -78 3z"/>
<path d="M997 1190 c-98 -31 -208 -124 -243 -207 -19 -45 -17 -113 4 -140 9
-12 33 -26 53 -31 l37 -10 0 77 c0 83 10 118 48 169 26 34 99 86 114 80 4 -2
-48 -154 -116 -338 -152 -409 -154 -413 -154 -422 0 -5 20 -8 44 -8 43 0 45 1
59 43 8 23 50 134 92 247 l76 205 -6 -180 c-3 -99 -8 -210 -11 -247 l-6 -68
80 0 80 0 20 47 c11 27 55 131 97 233 75 180 102 239 91 195 -3 -11 -8 -37
-11 -59 -6 -51 -18 -136 -30 -211 -3 -22 -7 -53 -9 -70 -3 -16 -7 -54 -11 -83
l-8 -52 82 0 c44 0 82 3 82 8 1 4 3 16 4 27 1 11 10 70 19 130 9 61 19 128 21
149 3 22 7 51 10 65 5 31 44 307 52 371 12 89 17 83 -71 82 -43 -1 -79 -2 -81
-4 -2 -2 -55 -129 -119 -283 -64 -153 -119 -282 -122 -284 -3 -3 -3 44 0 104
3 61 8 192 12 293 l7 182 -24 2 c-83 5 -113 3 -162 -12z"/>
</g>
</svg>
